<mxfile host="app.diagrams.net" modified="2020-10-07T23:41:14.963Z" agent="5.0 (Windows NT 10.0; Win64; x64) AppleWebKit/537.36 (KHTML, like Gecko) Chrome/67.0.3396.99 Safari/537.36" etag="kZTLgAvP8R1jpnw9U8_Q" version="13.7.7" type="github">
  <diagram id="-8fo3TLUpp0qgDMNs5XF" name="Page-1">
    <mxGraphModel dx="1108" dy="460" grid="1" gridSize="10" guides="1" tooltips="1" connect="1" arrows="1" fold="1" page="1" pageScale="1" pageWidth="827" pageHeight="1169" math="0" shadow="0">
      <root>
        <mxCell id="0" />
        <mxCell id="1" parent="0" />
        <mxCell id="A0sOpXw5xcT8Qd613fwc-1" value="storage" style="rounded=0;whiteSpace=wrap;html=1;labelPosition=left;verticalLabelPosition=middle;align=right;verticalAlign=middle;" parent="1" vertex="1">
          <mxGeometry x="75" y="591" width="480" height="80" as="geometry" />
        </mxCell>
        <mxCell id="A0sOpXw5xcT8Qd613fwc-2" value="ClickHouse" style="rounded=0;whiteSpace=wrap;html=1;fillColor=#d5e8d4;strokeColor=#82b366;" parent="1" vertex="1">
          <mxGeometry x="95" y="611" width="70" height="40" as="geometry" />
        </mxCell>
        <mxCell id="A0sOpXw5xcT8Qd613fwc-3" value="GraghDB" style="rounded=0;whiteSpace=wrap;html=1;fillColor=#d5e8d4;strokeColor=#82b366;" parent="1" vertex="1">
          <mxGeometry x="185" y="611" width="70" height="40" as="geometry" />
        </mxCell>
        <mxCell id="A0sOpXw5xcT8Qd613fwc-4" value="Kafka" style="rounded=0;whiteSpace=wrap;html=1;fillColor=#d5e8d4;strokeColor=#82b366;" parent="1" vertex="1">
          <mxGeometry x="275" y="611" width="70" height="40" as="geometry" />
        </mxCell>
        <mxCell id="A0sOpXw5xcT8Qd613fwc-5" value="ElasticSearch" style="rounded=0;whiteSpace=wrap;html=1;fillColor=#d5e8d4;strokeColor=#82b366;" parent="1" vertex="1">
          <mxGeometry x="368.5" y="611" width="76.5" height="40" as="geometry" />
        </mxCell>
        <mxCell id="A0sOpXw5xcT8Qd613fwc-6" value="Other DB" style="rounded=0;whiteSpace=wrap;html=1;fillColor=#d5e8d4;strokeColor=#82b366;" parent="1" vertex="1">
          <mxGeometry x="465" y="611" width="76.5" height="40" as="geometry" />
        </mxCell>
        <mxCell id="A0sOpXw5xcT8Qd613fwc-7" value="Plugins" style="rounded=0;whiteSpace=wrap;html=1;labelPosition=left;verticalLabelPosition=middle;align=right;verticalAlign=middle;" parent="1" vertex="1">
          <mxGeometry x="75" y="456" width="480" height="80" as="geometry" />
        </mxCell>
        <mxCell id="A0sOpXw5xcT8Qd613fwc-8" value="Extract Plugins" style="rounded=0;whiteSpace=wrap;html=1;fillColor=#d5e8d4;strokeColor=#82b366;" parent="1" vertex="1">
          <mxGeometry x="95" y="476" width="70" height="40" as="geometry" />
        </mxCell>
        <mxCell id="A0sOpXw5xcT8Qd613fwc-9" value="Transform Plugins" style="rounded=0;whiteSpace=wrap;html=1;fillColor=#d5e8d4;strokeColor=#82b366;" parent="1" vertex="1">
          <mxGeometry x="225" y="476" width="70" height="40" as="geometry" />
        </mxCell>
        <mxCell id="A0sOpXw5xcT8Qd613fwc-10" value="Load Plugins" style="rounded=0;whiteSpace=wrap;html=1;fillColor=#d5e8d4;strokeColor=#82b366;" parent="1" vertex="1">
          <mxGeometry x="345" y="476" width="70" height="40" as="geometry" />
        </mxCell>
        <mxCell id="A0sOpXw5xcT8Qd613fwc-11" value="Customize&lt;br&gt;&amp;nbsp;Plugins" style="rounded=0;whiteSpace=wrap;html=1;fillColor=#d5e8d4;strokeColor=#82b366;" parent="1" vertex="1">
          <mxGeometry x="455" y="476" width="70" height="40" as="geometry" />
        </mxCell>
        <mxCell id="A0sOpXw5xcT8Qd613fwc-12" value="Runtime" style="rounded=0;whiteSpace=wrap;html=1;labelPosition=left;verticalLabelPosition=middle;align=right;verticalAlign=middle;" parent="1" vertex="1">
          <mxGeometry x="75" y="327" width="480" height="63" as="geometry" />
        </mxCell>
        <mxCell id="A0sOpXw5xcT8Qd613fwc-13" value="Catalyst" style="rounded=0;whiteSpace=wrap;html=1;labelPosition=left;verticalLabelPosition=middle;align=right;verticalAlign=middle;" parent="1" vertex="1">
          <mxGeometry x="75" y="220" width="480" height="60" as="geometry" />
        </mxCell>
        <mxCell id="A0sOpXw5xcT8Qd613fwc-14" value="" style="shape=flexArrow;endArrow=classic;html=1;fillColor=#dae8fc;strokeColor=#6c8ebf;" parent="1" edge="1">
          <mxGeometry width="50" height="50" relative="1" as="geometry">
            <mxPoint x="425" y="590" as="sourcePoint" />
            <mxPoint x="425" y="540" as="targetPoint" />
          </mxGeometry>
        </mxCell>
        <mxCell id="A0sOpXw5xcT8Qd613fwc-15" value="Flink on Yarn" style="edgeLabel;html=1;align=center;verticalAlign=middle;resizable=0;points=[];" parent="A0sOpXw5xcT8Qd613fwc-14" vertex="1" connectable="0">
          <mxGeometry x="-0.2375" y="1" relative="1" as="geometry">
            <mxPoint as="offset" />
          </mxGeometry>
        </mxCell>
        <mxCell id="A0sOpXw5xcT8Qd613fwc-16" value="" style="shape=flexArrow;endArrow=classic;html=1;fillColor=#dae8fc;strokeColor=#6c8ebf;entryX=0.229;entryY=-0.012;entryDx=0;entryDy=0;entryPerimeter=0;exitX=0.229;exitY=-0.012;exitDx=0;exitDy=0;exitPerimeter=0;" parent="1" source="A0sOpXw5xcT8Qd613fwc-1" edge="1">
          <mxGeometry width="50" height="50" relative="1" as="geometry">
            <mxPoint x="265" y="570" as="sourcePoint" />
            <mxPoint x="185" y="540" as="targetPoint" />
          </mxGeometry>
        </mxCell>
        <mxCell id="A0sOpXw5xcT8Qd613fwc-17" value="Flink on Local" style="edgeLabel;html=1;align=center;verticalAlign=middle;resizable=0;points=[];" parent="A0sOpXw5xcT8Qd613fwc-16" vertex="1" connectable="0">
          <mxGeometry x="-0.2133" y="2" relative="1" as="geometry">
            <mxPoint as="offset" />
          </mxGeometry>
        </mxCell>
        <mxCell id="A0sOpXw5xcT8Qd613fwc-18" value="Command&lt;br&gt;Catalyst" style="rounded=0;whiteSpace=wrap;html=1;fillColor=#d5e8d4;strokeColor=#82b366;" parent="1" vertex="1">
          <mxGeometry x="85" y="337" width="70" height="40" as="geometry" />
        </mxCell>
        <mxCell id="A0sOpXw5xcT8Qd613fwc-19" value="DAG&lt;br&gt;Builder" style="rounded=0;whiteSpace=wrap;html=1;fillColor=#d5e8d4;strokeColor=#82b366;" parent="1" vertex="1">
          <mxGeometry x="164" y="337" width="70" height="40" as="geometry" />
        </mxCell>
        <mxCell id="A0sOpXw5xcT8Qd613fwc-20" value="DAG&lt;br&gt;Catalyst" style="rounded=0;whiteSpace=wrap;html=1;fillColor=#d5e8d4;strokeColor=#82b366;" parent="1" vertex="1">
          <mxGeometry x="243" y="338.5" width="70" height="40" as="geometry" />
        </mxCell>
        <mxCell id="A0sOpXw5xcT8Qd613fwc-21" value="DAG&lt;br&gt;Optimizer" style="rounded=0;whiteSpace=wrap;html=1;fillColor=#d5e8d4;strokeColor=#82b366;" parent="1" vertex="1">
          <mxGeometry x="323" y="338.5" width="70" height="40" as="geometry" />
        </mxCell>
        <mxCell id="A0sOpXw5xcT8Qd613fwc-22" value="Event&lt;br&gt;Listener" style="rounded=0;whiteSpace=wrap;html=1;fillColor=#d5e8d4;strokeColor=#82b366;" parent="1" vertex="1">
          <mxGeometry x="402" y="338.5" width="70" height="40" as="geometry" />
        </mxCell>
        <mxCell id="A0sOpXw5xcT8Qd613fwc-23" value="" style="shape=flexArrow;endArrow=classic;html=1;exitX=0.448;exitY=1.063;exitDx=0;exitDy=0;exitPerimeter=0;fillColor=#dae8fc;strokeColor=#6c8ebf;" parent="1" edge="1">
          <mxGeometry width="50" height="50" relative="1" as="geometry">
            <mxPoint x="315" y="450" as="sourcePoint" />
            <mxPoint x="315.03999999999996" y="393.96900000000005" as="targetPoint" />
          </mxGeometry>
        </mxCell>
        <mxCell id="A0sOpXw5xcT8Qd613fwc-24" value="Plugins Scheduler" style="edgeLabel;html=1;align=center;verticalAlign=middle;resizable=0;points=[];" parent="A0sOpXw5xcT8Qd613fwc-23" vertex="1" connectable="0">
          <mxGeometry x="-0.4992" y="1" relative="1" as="geometry">
            <mxPoint as="offset" />
          </mxGeometry>
        </mxCell>
        <mxCell id="A0sOpXw5xcT8Qd613fwc-25" value="Params Catalyst" style="rounded=0;whiteSpace=wrap;html=1;fillColor=#d5e8d4;strokeColor=#82b366;" parent="1" vertex="1">
          <mxGeometry x="85" y="230" width="70" height="40" as="geometry" />
        </mxCell>
        <mxCell id="A0sOpXw5xcT8Qd613fwc-26" value="Date Replace" style="rounded=0;whiteSpace=wrap;html=1;fillColor=#d5e8d4;strokeColor=#82b366;" parent="1" vertex="1">
          <mxGeometry x="215" y="230" width="70" height="40" as="geometry" />
        </mxCell>
        <mxCell id="A0sOpXw5xcT8Qd613fwc-27" value="Command Builer" style="rounded=0;whiteSpace=wrap;html=1;fillColor=#d5e8d4;strokeColor=#82b366;" parent="1" vertex="1">
          <mxGeometry x="335" y="230" width="70" height="40" as="geometry" />
        </mxCell>
        <mxCell id="A0sOpXw5xcT8Qd613fwc-28" value="Command Encoder" style="rounded=0;whiteSpace=wrap;html=1;fillColor=#d5e8d4;strokeColor=#82b366;" parent="1" vertex="1">
          <mxGeometry x="455" y="230" width="70" height="40" as="geometry" />
        </mxCell>
        <mxCell id="A0sOpXw5xcT8Qd613fwc-29" value="" style="shape=flexArrow;endArrow=classic;exitX=0.5;exitY=0;exitDx=0;exitDy=0;entryX=0.5;entryY=1;entryDx=0;entryDy=0;fillColor=#dae8fc;strokeColor=#6c8ebf;" parent="1" source="A0sOpXw5xcT8Qd613fwc-12" target="A0sOpXw5xcT8Qd613fwc-13" edge="1">
          <mxGeometry width="50" height="50" relative="1" as="geometry">
            <mxPoint x="395" y="220" as="sourcePoint" />
            <mxPoint x="345" y="270" as="targetPoint" />
          </mxGeometry>
        </mxCell>
        <mxCell id="A0sOpXw5xcT8Qd613fwc-30" value="Shell" style="edgeLabel;html=1;align=center;verticalAlign=middle;resizable=0;points=[];" parent="A0sOpXw5xcT8Qd613fwc-29" vertex="1" connectable="0">
          <mxGeometry x="-0.4468" relative="1" as="geometry">
            <mxPoint as="offset" />
          </mxGeometry>
        </mxCell>
        <mxCell id="A0sOpXw5xcT8Qd613fwc-31" value="Server" style="rounded=0;whiteSpace=wrap;html=1;labelPosition=left;verticalLabelPosition=top;align=right;verticalAlign=bottom;" parent="1" vertex="1">
          <mxGeometry x="175" y="120" width="380" height="60" as="geometry" />
        </mxCell>
        <mxCell id="A0sOpXw5xcT8Qd613fwc-32" value="Application Manager" style="rounded=0;whiteSpace=wrap;html=1;fillColor=#d5e8d4;strokeColor=#82b366;" parent="1" vertex="1">
          <mxGeometry x="189.5" y="130" width="61" height="40" as="geometry" />
        </mxCell>
        <mxCell id="A0sOpXw5xcT8Qd613fwc-33" value="" style="edgeStyle=orthogonalEdgeStyle;rounded=0;orthogonalLoop=1;jettySize=auto;html=0;entryX=1;entryY=0.5;entryDx=0;entryDy=0;" parent="1" source="A0sOpXw5xcT8Qd613fwc-35" target="A0sOpXw5xcT8Qd613fwc-36" edge="1">
          <mxGeometry relative="1" as="geometry">
            <mxPoint x="609.5" y="358.5" as="targetPoint" />
            <Array as="points">
              <mxPoint x="615" y="359" />
              <mxPoint x="615" y="150" />
            </Array>
          </mxGeometry>
        </mxCell>
        <mxCell id="A0sOpXw5xcT8Qd613fwc-34" value="Metrics Sending" style="edgeLabel;html=1;align=center;verticalAlign=middle;resizable=0;points=[];" parent="A0sOpXw5xcT8Qd613fwc-33" vertex="1" connectable="0">
          <mxGeometry x="0.1259" y="-5" relative="1" as="geometry">
            <mxPoint y="1" as="offset" />
          </mxGeometry>
        </mxCell>
        <mxCell id="A0sOpXw5xcT8Qd613fwc-35" value="Metrics&lt;br&gt;Sender" style="rounded=0;whiteSpace=wrap;html=1;fillColor=#d5e8d4;strokeColor=#82b366;" parent="1" vertex="1">
          <mxGeometry x="477" y="338.5" width="75" height="40" as="geometry" />
        </mxCell>
        <mxCell id="A0sOpXw5xcT8Qd613fwc-36" value="Metrics&lt;br&gt;Receiver" style="rounded=0;whiteSpace=wrap;html=1;fillColor=#d5e8d4;strokeColor=#82b366;" parent="1" vertex="1">
          <mxGeometry x="473.25" y="130" width="60" height="40" as="geometry" />
        </mxCell>
        <mxCell id="A0sOpXw5xcT8Qd613fwc-37" value="Application&amp;nbsp; Register" style="rounded=0;whiteSpace=wrap;html=1;fillColor=#d5e8d4;strokeColor=#82b366;" parent="1" vertex="1">
          <mxGeometry x="261" y="130" width="62" height="40" as="geometry" />
        </mxCell>
        <mxCell id="A0sOpXw5xcT8Qd613fwc-38" value="" style="shape=flexArrow;endArrow=classic;html=1;fillColor=#dae8fc;strokeColor=#6c8ebf;entryX=0.521;entryY=1;entryDx=0;entryDy=0;entryPerimeter=0;" parent="1" target="A0sOpXw5xcT8Qd613fwc-31" edge="1">
          <mxGeometry width="50" height="50" relative="1" as="geometry">
            <mxPoint x="373" y="216" as="sourcePoint" />
            <mxPoint x="345" y="270" as="targetPoint" />
          </mxGeometry>
        </mxCell>
        <mxCell id="A0sOpXw5xcT8Qd613fwc-39" value="SDK" style="rounded=0;whiteSpace=wrap;html=1;labelPosition=center;verticalLabelPosition=middle;align=center;verticalAlign=middle;fillColor=#d5e8d4;strokeColor=#82b366;" parent="1" vertex="1">
          <mxGeometry x="445" y="40" width="80" height="30" as="geometry" />
        </mxCell>
        <mxCell id="A0sOpXw5xcT8Qd613fwc-40" value="API" style="rounded=0;whiteSpace=wrap;html=1;labelPosition=center;verticalLabelPosition=middle;align=center;verticalAlign=middle;fillColor=#d5e8d4;strokeColor=#82b366;" parent="1" vertex="1">
          <mxGeometry x="295" y="40" width="80" height="30" as="geometry" />
        </mxCell>
        <mxCell id="A0sOpXw5xcT8Qd613fwc-41" value="Restful API" style="rounded=0;whiteSpace=wrap;html=1;fillColor=#d5e8d4;strokeColor=#82b366;" parent="1" vertex="1">
          <mxGeometry x="332" y="130" width="53" height="40" as="geometry" />
        </mxCell>
        <mxCell id="A0sOpXw5xcT8Qd613fwc-42" value="" style="shape=flexArrow;endArrow=classic;html=1;exitX=0.5;exitY=1;exitDx=0;exitDy=0;fillColor=#dae8fc;strokeColor=#6c8ebf;entryX=0.5;entryY=1;entryDx=0;entryDy=0;" parent="1" target="A0sOpXw5xcT8Qd613fwc-40" edge="1">
          <mxGeometry width="50" height="50" relative="1" as="geometry">
            <mxPoint x="335" y="119" as="sourcePoint" />
            <mxPoint x="406.93000000000006" y="190" as="targetPoint" />
          </mxGeometry>
        </mxCell>
        <mxCell id="A0sOpXw5xcT8Qd613fwc-43" value="" style="shape=flexArrow;endArrow=classic;html=1;exitX=0.5;exitY=1;exitDx=0;exitDy=0;fillColor=#dae8fc;strokeColor=#6c8ebf;entryX=0.5;entryY=1;entryDx=0;entryDy=0;" parent="1" target="A0sOpXw5xcT8Qd613fwc-39" edge="1">
          <mxGeometry width="50" height="50" relative="1" as="geometry">
            <mxPoint x="487" y="116" as="sourcePoint" />
            <mxPoint x="345" y="80" as="targetPoint" />
          </mxGeometry>
        </mxCell>
        <mxCell id="A0sOpXw5xcT8Qd613fwc-44" value="Driver" style="rounded=0;whiteSpace=wrap;html=1;labelPosition=center;verticalLabelPosition=middle;align=center;verticalAlign=middle;fillColor=#d5e8d4;strokeColor=#82b366;" parent="1" vertex="1">
          <mxGeometry x="79" y="40" width="80" height="30" as="geometry" />
        </mxCell>
        <mxCell id="A0sOpXw5xcT8Qd613fwc-45" value="" style="shape=flexArrow;endArrow=classic;html=1;exitX=0.5;exitY=1;exitDx=0;exitDy=0;fillColor=#dae8fc;strokeColor=#6c8ebf;entryX=0.5;entryY=1;entryDx=0;entryDy=0;" parent="1" target="A0sOpXw5xcT8Qd613fwc-44" edge="1">
          <mxGeometry width="50" height="50" relative="1" as="geometry">
            <mxPoint x="119" y="210" as="sourcePoint" />
            <mxPoint x="319" y="80" as="targetPoint" />
          </mxGeometry>
        </mxCell>
        <mxCell id="A0sOpXw5xcT8Qd613fwc-46" value="CheckPoint" style="rounded=0;whiteSpace=wrap;html=1;fillColor=#d5e8d4;strokeColor=#82b366;" parent="1" vertex="1">
          <mxGeometry x="394" y="130" width="62" height="40" as="geometry" />
        </mxCell>
      </root>
    </mxGraphModel>
  </diagram>
</mxfile>
